# xmcd CD database file
#
# Track frame offsets:
#	150
#	15047
#	29325
#	44255
#	57917
#	68947
#	83370
#	96967
#	111795
#	126970
#	140655
#	156430
#	169257
#	183687
#
# Disc length: 2626 seconds
#
# Revision: 5
# Processed by: cddbd v1.5.2PL0 Copyright (c) Steve Scherf et al.
# Submitted via: CDex 1.70beta2
#
DISCID=ba0a400e
DTITLE=Sarah Vaughan - The Divine 1
DYEAR=1985
DGENRE=Jazz
TTITLE0=Black Coffee
TTITLE1=While You Are Gone
TTITLE2=You Taught Me To Love Again
TTITLE3=Just Friends
TTITLE4=I Cried For You
TTITLE5=You're Mine, You
TTITLE6=I'm Crazy To Love You
TTITLE7=Summertime
TTITLE8=The Nearness Of You
TTITLE9=Ain't Misbehavin'
TTITLE10=Goodnight My Love
TTITLE11=Can't Get Out Of This Mood
TTITLE12=It Might As Well Be Spring
TTITLE13=Mean To Me
EXTD=LABEL =CBS Records Inc.\nID =C2K44165\nUPC =07464-44165-2\nCOPYRIGHT =1988 YEAR: 1985
EXTT0=
EXTT1=
EXTT2=
EXTT3=
EXTT4=
EXTT5=
EXTT6=
EXTT7=
EXTT8=
EXTT9=
EXTT10=
EXTT11=
EXTT12=
EXTT13=
PLAYORDER=
